<?xml version="1.0" encoding="iso-8859-1"?>
<!-- Generator: Adobe Illustrator 19.0.0, SVG Export Plug-In . SVG Version: 6.00 Build 0)  -->
<svg version="1.1" id="Layer_1" xmlns="http://www.w3.org/2000/svg" xmlns:xlink="http://www.w3.org/1999/xlink" x="0px" y="0px"
	 viewBox="0 0 512 512" style="enable-background:new 0 0 512 512;" xml:space="preserve">
<path style="fill:#F0C419;" d="M199.531,229.088c0,12.008,3.277,23.243,8.988,32.875c-1.369,3.698-3.125,7.209-5.231,10.463h-90.561
	c-5.419-8.391-8.555-18.386-8.555-29.118c0-29.727,24.109-53.836,53.836-53.836c18.281,0,34.431,9.117,44.157,23.044
	C200.467,217.701,199.531,223.307,199.531,229.088z"/>
<path style="fill:#A3875E;" d="M474.549,272.426H447.69h-41.266h-76.306h-18.105h-95.781h-12.944h-90.561H64.31H37.451
	c-14.22,0-25.747,11.528-25.747,25.747v4.951c0,14.22,11.528,25.747,25.747,25.747H57.99c-14.22,0-25.747,11.528-25.747,25.747
	v4.962c0,14.22,11.528,25.747,25.747,25.747h21.546h352.927h21.546c14.22,0,25.747-11.528,25.747-25.747v-4.962
	c0-14.22-11.528-25.747-25.747-25.747h20.539c14.22,0,25.747-11.528,25.747-25.747v-4.951
	C500.297,283.954,488.769,272.426,474.549,272.426z"/>
<path style="fill:#6E5B3F;" d="M458.211,411.076v4.962c0,14.22-11.528,25.747-25.747,25.747H79.536
	c-14.22,0-25.747-11.528-25.747-25.747v-4.962c0-14.22,11.528-25.747,25.747-25.747h352.927
	C446.683,385.328,458.211,396.856,458.211,411.076z"/>
<path style="fill:#B5E06C;" d="M407.091,250.774c1.229,8.005,0.878,15.25-0.667,21.651h-76.306
	c-1.545-6.402-1.896-13.646-0.667-21.651c4.459-29.083,17.38-53.836,38.82-53.836S402.632,221.692,407.091,250.774z"/>
<path style="fill:#FFFFFF;" d="M264.122,162.987v36.655l-30.089-66.744C250.652,132.898,264.122,146.368,264.122,162.987z"/>
<path style="fill:#DF4D60;" d="M202.164,212.516c8.754-26.789,37.708-42.319,61.958-12.874
	c28.942-35.145,64.591-6.226,64.591,29.446c0,16.677-6.32,31.88-16.701,43.338h-95.781c-2.902-3.207-5.501-6.706-7.713-10.463
	c-5.711-9.632-8.988-20.867-8.988-32.875C199.531,223.307,200.467,217.701,202.164,212.516z"/>
<path d="M447.69,284.129c-6.464,0-11.703-5.241-11.703-11.703v-10.521c0-99.245-80.742-179.986-179.986-179.986
	S76.014,162.66,76.014,261.904v10.521c0,6.463-5.24,11.703-11.703,11.703c-6.464,0-11.703-5.241-11.703-11.703v-10.521
	c0-112.151,91.242-203.393,203.393-203.393s203.393,91.242,203.393,203.393v10.521C459.393,278.89,454.154,284.129,447.69,284.129z"
	/>
<path d="M112.739,284.13c-3.841,0-7.604-1.888-9.843-5.355c-6.822-10.563-10.427-22.829-10.427-35.467
	c0-36.139,29.401-65.539,65.539-65.539c21.394,0,41.487,10.484,53.753,28.046c3.701,5.299,2.405,12.595-2.894,16.296
	c-5.297,3.703-12.595,2.407-16.296-2.894c-7.889-11.296-20.809-18.041-34.561-18.041c-23.232,0-42.132,18.9-42.132,42.132
	c0,8.124,2.311,15.999,6.684,22.769c3.506,5.43,1.947,12.675-3.483,16.18C117.114,283.525,114.913,284.13,112.739,284.13z"/>
<path d="M203.277,284.13c-2.179,0-4.384-0.609-6.349-1.88c-5.426-3.512-6.978-10.758-3.464-16.185
	c1.637-2.529,3.011-5.278,4.081-8.168c2.245-6.062,8.978-9.152,15.04-6.911c6.061,2.246,9.154,8.979,6.91,15.04
	c-1.665,4.498-3.813,8.79-6.382,12.759C210.873,282.246,207.114,284.13,203.277,284.13z"/>
<path d="M406.433,284.131c-0.909,0-1.833-0.107-2.756-0.329c-6.284-1.517-10.147-7.839-8.63-14.122
	c1.259-5.219,1.42-10.981,0.476-17.13c-3.106-20.256-12.106-43.908-27.253-43.908c-15.147,0-24.146,23.651-27.253,43.906
	c-0.943,6.15-0.783,11.913,0.476,17.131c1.517,6.284-2.347,12.606-8.63,14.122c-6.281,1.519-12.606-2.348-14.122-8.63
	c-1.978-8.194-2.267-16.999-0.859-26.172c6.121-39.926,24.959-63.764,50.389-63.764c25.43,0,44.267,23.837,50.388,63.765
	c1.408,9.172,1.119,17.978-0.859,26.171C416.506,280.533,411.715,284.131,406.433,284.131z"/>
<path d="M368.271,208.642c-6.464,0-11.703-5.241-11.703-11.703V176.13c0-6.463,5.24-11.703,11.703-11.703
	s11.703,5.241,11.703,11.703v20.809C379.974,203.403,374.734,208.642,368.271,208.642z"/>
<path d="M312.009,284.129c-2.803,0-5.614-0.999-7.854-3.03c-4.79-4.341-5.154-11.741-0.815-16.531
	c8.815-9.73,13.671-22.33,13.671-35.48c0-14.776-8.119-28.83-18.883-32.692c-10.314-3.702-19.273,3.768-24.97,10.686
	c-2.223,2.7-5.537,4.264-9.034,4.264c-3.497,0-6.811-1.564-9.034-4.264c-5.078-6.167-13.083-13.149-22.369-11.396
	c-8.25,1.558-15.877,9.59-19.431,20.465c-1.363,4.166-2.054,8.517-2.054,12.937c0,9.491,2.542,18.796,7.351,26.905
	c1.787,3.035,3.908,5.91,6.323,8.58c4.337,4.793,3.969,12.193-0.825,16.53c-4.794,4.337-12.194,3.969-16.531-0.824
	c-3.479-3.845-6.548-8.01-9.12-12.379c-6.932-11.689-10.607-25.121-10.607-38.812c0-6.897,1.081-13.698,3.214-20.213
	c6.26-19.155,20.566-33.025,37.336-36.189c7.673-1.448,21.421-1.558,35.759,10.363c12.826-10.628,27.611-13.812,41.893-8.686
	c20.246,7.263,34.386,29.766,34.386,54.724c0,18.971-7.007,37.152-19.731,51.195C318.376,282.834,315.198,284.129,312.009,284.129z"
	/>
<path d="M264.122,211.346c-6.464,0-11.703-5.241-11.703-11.703v-36.654c0-10.137-8.247-18.386-18.386-18.386
	c-6.464,0-11.703-5.241-11.703-11.703s5.24-11.703,11.703-11.703c23.044,0,41.793,18.749,41.793,41.793v36.654
	C275.826,206.105,270.586,211.346,264.122,211.346z"/>
<path d="M432.464,453.489H79.536c-20.651,0-37.451-16.8-37.451-37.451v-4.962c0-20.651,16.8-37.451,37.451-37.451
	c6.464,0,11.703,5.241,11.703,11.703S86,397.032,79.536,397.032c-7.744,0-14.044,6.3-14.044,14.044v4.962
	c0,7.744,6.3,14.044,14.044,14.044h352.927c7.744,0,14.044-6.3,14.044-14.044v-4.962c0-7.744-6.3-14.044-14.044-14.044
	c-6.464,0-11.703-5.241-11.703-11.703s5.24-11.703,11.703-11.703c20.651,0,37.451,16.8,37.451,37.451v4.962
	C469.915,436.689,453.114,453.489,432.464,453.489z"/>
<path d="M454.01,397.032H57.99c-20.651,0-37.451-16.8-37.451-37.451v-4.962c0-20.651,16.8-37.451,37.451-37.451
	c6.464,0,11.703,5.241,11.703,11.703s-5.24,11.703-11.703,11.703c-7.744,0-14.044,6.3-14.044,14.044v4.962
	c0,7.744,6.3,14.044,14.044,14.044H454.01c7.744,0,14.044-6.3,14.044-14.044v-4.962c0-7.744-6.3-14.044-14.044-14.044
	c-6.464,0-11.703-5.241-11.703-11.703s5.24-11.703,11.703-11.703c20.651,0,37.451,16.8,37.451,37.451v4.962
	C491.461,380.232,474.66,397.032,454.01,397.032z"/>
<path d="M474.549,340.575h-51.191c-6.464,0-11.703-5.241-11.703-11.703s5.24-11.703,11.703-11.703h51.191
	c7.744,0,14.044-6.3,14.044-14.044v-4.949c0-7.744-6.3-14.044-14.044-14.044H37.451c-7.744,0-14.044,6.3-14.044,14.044v4.949
	c0,7.744,6.3,14.044,14.044,14.044h296.572c6.464,0,11.703,5.241,11.703,11.703s-5.24,11.703-11.703,11.703H37.451
	C16.8,340.575,0,323.774,0,303.124v-4.949c0-20.651,16.8-37.451,37.451-37.451h437.098c20.651,0,37.451,16.8,37.451,37.451v4.949
	C512,323.773,495.2,340.575,474.549,340.575z"/>
<path d="M385.908,340.575h-8.973c-6.464,0-11.703-5.241-11.703-11.703s5.24-11.703,11.703-11.703h8.973
	c6.464,0,11.703,5.241,11.703,11.703S392.371,340.575,385.908,340.575z"/>
<g>
</g>
<g>
</g>
<g>
</g>
<g>
</g>
<g>
</g>
<g>
</g>
<g>
</g>
<g>
</g>
<g>
</g>
<g>
</g>
<g>
</g>
<g>
</g>
<g>
</g>
<g>
</g>
<g>
</g>
</svg>
