<?xml version="1.0" encoding="iso-8859-1"?>
<!-- Generator: Adobe Illustrator 19.0.0, SVG Export Plug-In . SVG Version: 6.00 Build 0)  -->
<svg version="1.1" id="Layer_1" xmlns="http://www.w3.org/2000/svg" xmlns:xlink="http://www.w3.org/1999/xlink" x="0px" y="0px"
	 viewBox="0 0 512 512" style="enable-background:new 0 0 512 512;" xml:space="preserve">
<path style="fill:#6E5B3F;" d="M497.689,488.075H14.311c13.782-49.488,59.148-85.81,113.03-85.81c16.143,0,31.513,3.263,45.51,9.159
	c21.352-25.975,53.725-42.547,89.975-42.547c44.379,0,82.948,24.83,102.583,61.367c14.039-13.009,32.83-20.966,53.481-20.966
	C462.411,409.277,497.689,444.554,497.689,488.075z"/>
<g>
	<path style="fill:#B5E06C;" d="M447.041,24.032c5.309,209.174-190.555,190.555-190.555,190.555S237.867,18.723,447.041,24.032z"/>
	<path style="fill:#B5E06C;" d="M121.932,80.59c0,0,137.76-13.095,134.011,133.996C108.851,218.336,121.932,80.59,121.932,80.59z"/>
</g>
<path d="M497.689,502.386H14.311c-4.474,0-8.69-2.092-11.396-5.654c-2.706-3.563-3.591-8.186-2.39-12.495
	c15.787-56.69,67.936-96.282,126.816-96.282c14.192,0,28.06,2.227,41.351,6.63c24.595-25.551,58.357-40.019,94.134-40.019
	c42.61,0,82.039,20.624,106.394,54.761c14.759-9.34,31.911-14.36,49.67-14.36c51.34,0,93.109,41.769,93.109,93.109
	C512,495.979,505.593,502.386,497.689,502.386z M35.071,473.764h446.705c-6.529-28.693-32.246-50.175-62.887-50.175
	c-16.279,0-31.817,6.091-43.754,17.152c-3.249,3.011-7.705,4.348-12.08,3.619c-4.371-0.728-8.156-3.439-10.254-7.342
	c-17.845-33.204-52.322-53.83-89.978-53.83c-30.656,0-59.422,13.604-78.919,37.324c-4.021,4.89-10.778,6.56-16.611,4.1
	c-12.658-5.332-26.099-8.036-39.953-8.036C87.848,416.576,52.226,439.334,35.071,473.764z"/>
<path d="M256.057,383.188c-7.904,0-14.311-6.407-14.311-14.311V214.701c0-7.904,6.407-14.311,14.311-14.311
	s14.311,6.407,14.311,14.311v154.175C270.368,376.781,263.961,383.188,256.057,383.188z"/>
<path d="M250.085,228.974c-46.214,0-82.233-13.506-107.131-40.189c-40.982-43.921-35.522-106.888-35.27-109.547
	c0.648-6.834,6.058-12.245,12.893-12.894c2.659-0.253,65.637-5.72,109.564,35.263c27.868,26.001,41.362,64.136,40.107,113.345
	c-0.195,7.618-6.323,13.747-13.942,13.942C254.214,228.947,252.139,228.974,250.085,228.974z M136.091,94.704
	c0.763,17.839,5.445,50.728,27.937,74.711c17.776,18.955,43.805,29.272,77.493,30.751c-1.483-33.777-11.851-59.851-30.907-77.63
	C186.5,100.035,153.855,95.418,136.091,94.704z"/>
<path d="M432.229,131.673c-1.806,0-3.641-0.343-5.417-1.07c-7.314-2.994-10.818-11.352-7.824-18.666
	c0.445-1.085,0.88-2.184,1.305-3.294c2.825-7.382,11.098-11.075,18.482-8.252c7.382,2.825,11.077,11.098,8.252,18.482
	c-0.505,1.318-1.02,2.62-1.548,3.908C443.21,128.32,437.866,131.673,432.229,131.673z"/>
<path d="M269.1,229.363c-7.99,0-13.052-0.442-13.969-0.53c-6.834-0.65-12.243-6.059-12.893-12.893
	c-0.349-3.669-7.896-90.583,48.54-151.078c35.747-38.317,88.451-56.876,156.625-55.137c7.619,0.193,13.75,6.324,13.943,13.943
	c0.537,21.162-0.91,41.098-4.302,59.25c-1.451,7.77-8.923,12.89-16.697,11.44c-7.77-1.453-12.892-8.927-11.44-16.697
	c2.281-12.205,3.574-25.398,3.863-39.365c-52.741,1.081-93.365,16.501-120.912,45.926c-36.107,38.57-41.152,92.293-41.443,116.424
	c27.768-0.356,94.854-7.053,133.018-60.361c4.601-6.429,13.541-7.907,19.967-3.307c6.427,4.601,7.907,13.54,3.307,19.967
	C379.943,222.273,301.096,229.362,269.1,229.363z"/>
<g>
</g>
<g>
</g>
<g>
</g>
<g>
</g>
<g>
</g>
<g>
</g>
<g>
</g>
<g>
</g>
<g>
</g>
<g>
</g>
<g>
</g>
<g>
</g>
<g>
</g>
<g>
</g>
<g>
</g>
</svg>
